<svg xmlns="http://www.w3.org/2000/svg" xmlns:xlink="http://www.w3.org/1999/xlink"><defs><style>
    .sprite-symbol-usage {display: none;}
    .sprite-symbol-usage:target {display: inline;}
  </style><symbol viewBox="0 0 29 29" id="facebook"><path data-name="Facebook" d="M15.49 29H1.6A1.6 1.6 0 0 1 0 27.4V1.6A1.6 1.6 0 0 1 1.6 0h25.8A1.6 1.6 0 0 1 29 1.6v25.8a1.6 1.6 0 0 1-1.6 1.6h-7.39V17.77h3.77l.564-4.377H20.01V10.6c0-1.267.352-2.131 2.169-2.131H24.5V4.552a30.982 30.982 0 0 0-3.377-.173c-3.341 0-5.629 2.04-5.629 5.785v3.228h-3.783v4.378h3.779V29Z" /></symbol><symbol viewBox="0 0 29 29" id="instagram"><path d="M8.522 28.913a10.719 10.719 0 0 1-3.521-.674 7.111 7.111 0 0 1-2.569-1.673 7.109 7.109 0 0 1-1.67-2.565 10.733 10.733 0 0 1-.674-3.52c-.071-1.567-.087-2.086-.087-5.98s.017-4.414.087-5.978a10.733 10.733 0 0 1 .674-3.522 7.112 7.112 0 0 1 1.672-2.567A7.112 7.112 0 0 1 5.001.762 10.733 10.733 0 0 1 8.522.087c1.564-.07 2.079-.086 5.979-.086s4.414.017 5.979.087a10.733 10.733 0 0 1 3.521.674 7.109 7.109 0 0 1 2.568 1.672 7.111 7.111 0 0 1 1.67 2.567 10.719 10.719 0 0 1 .673 3.52c.07 1.545.087 2.059.087 5.978s-.017 4.433-.087 5.979a10.719 10.719 0 0 1-.673 3.523 7.424 7.424 0 0 1-4.238 4.238 10.719 10.719 0 0 1-3.52.673c-1.546.07-2.061.087-5.979.087s-4.434-.016-5.98-.086Zm.056-26.342a8.129 8.129 0 0 0-2.721.5 4.528 4.528 0 0 0-1.685 1.1 4.528 4.528 0 0 0-1.1 1.685 8.129 8.129 0 0 0-.5 2.721c-.071 1.563-.086 2.024-.086 5.924s.015 4.361.086 5.922a8.13 8.13 0 0 0 .5 2.722 4.535 4.535 0 0 0 1.1 1.685 4.536 4.536 0 0 0 1.685 1.1 8.1 8.1 0 0 0 2.721.5c1.542.07 2 .086 5.922.086s4.38-.015 5.922-.086a8.1 8.1 0 0 0 2.722-.5 4.854 4.854 0 0 0 2.781-2.781 8.1 8.1 0 0 0 .5-2.722c.07-1.542.086-2 .086-5.922s-.015-4.38-.086-5.922a9.14 9.14 0 0 0-.333-2.225 2.486 2.486 0 1 1-3.446-3.457 9.141 9.141 0 0 0-2.224-.334c-1.562-.07-2.028-.086-5.922-.086s-4.36.02-5.922.09Zm-1.12 12.344a7.457 7.457 0 1 1 7.457 7.457 7.466 7.466 0 0 1-7.457-7.457Zm2.486 0a4.971 4.971 0 1 0 4.972-4.972 4.977 4.977 0 0 0-4.973 4.972Z" /></symbol><symbol viewBox="0 0 27 24" id="vimeo"><path d="M26.986 5.549q-.176 4.057-5.5 11.094Q15.978 24 12.162 24 9.8 24 8.171 19.516q-1.093-4.116-2.18-8.229Q4.777 6.8 3.388 6.8A8.293 8.293 0 0 0 1.27 8.108L0 6.422q2-1.8 3.935-3.612Q6.593.44 7.928.314 11.071 0 11.8 4.739q.779 5.114 1.086 6.36.91 4.239 2 4.235.845 0 2.542-2.739a10.94 10.94 0 0 0 1.815-4.178c.162-1.58-.443-2.365-1.815-2.365a5.028 5.028 0 0 0-2 .435q2-6.67 7.626-6.482 4.17.12 3.929 5.544" /></symbol><symbol viewBox="0 0 34 24" id="youtube"><path d="M17 24c-.088 0-8.871-.084-11.561-.344-.128-.024-.282-.042-.46-.064a5.006 5.006 0 0 1-3.29-1.4A7.436 7.436 0 0 1 .34 18.811 52.15 52.15 0 0 1 0 13.289V10.7a52.249 52.249 0 0 1 .34-5.523A7.441 7.441 0 0 1 1.69 1.79 4.68 4.68 0 0 1 4.88.368L5.1.346C9.8 0 16.922 0 16.993 0h.014C17.079 0 24.2 0 28.9.346c.065.008.138.015.218.023a4.676 4.676 0 0 1 3.19 1.421 7.452 7.452 0 0 1 1.352 3.387A52.2 52.2 0 0 1 34 10.7v2.589a52.2 52.2 0 0 1-.34 5.522 7.451 7.451 0 0 1-1.352 3.389 4.678 4.678 0 0 1-3.186 1.423c-.08.008-.154.015-.22.023C24.2 23.985 17.072 24 17 24ZM14.1 7.448v9.931l7.463-4.948Z" /></symbol></defs><use id="facebook-usage" xlink:href="#facebook" class="sprite-symbol-usage" /><use id="instagram-usage" xlink:href="#instagram" class="sprite-symbol-usage" /><use id="vimeo-usage" xlink:href="#vimeo" class="sprite-symbol-usage" /><use id="youtube-usage" xlink:href="#youtube" class="sprite-symbol-usage" /></svg>